<svg height='300px' width='300px'  fill="#000000" xmlns="http://www.w3.org/2000/svg" xmlns:xlink="http://www.w3.org/1999/xlink" style="isolation:isolate;" viewBox="0 0 100 100" x="0px" y="0px"><path d=" M 50.038 0 C 49.745 0 49.455 0.066 49.201 0.212 L 7.325 24.415 C 6.83 24.698 6.529 25.227 6.529 25.797 L 6.529 74.199 C 6.529 74.768 6.832 75.295 7.325 75.58 L 49.201 99.784 C 49.696 100.072 50.305 100.072 50.798 99.784 L 92.675 75.58 C 93.17 75.297 93.471 74.768 93.471 74.199 L 93.471 25.797 C 93.471 25.228 93.168 24.701 92.675 24.416 L 50.798 0.212 C 50.566 0.081 50.303 0.005 50.038 0 L 50.038 0 Z  M 49.987 3.436 L 90.265 26.715 L 90.265 73.279 L 49.987 96.558 L 9.709 73.279 L 9.709 26.715 L 49.987 3.436 Z  M 33.099 28.068 C 32.233 28.068 31.664 28.118 31.664 28.118 L 37.894 33.309 L 36.736 38.23 L 32.374 40.102 L 25.859 36.021 C 25.859 36.021 28.268 42.243 30.893 44.29 C 31.612 44.851 33.898 45.256 38.694 44.23 L 45.207 50.809 L 31.878 64.266 C 30.244 64.089 28.617 64.665 27.453 65.824 C 25.328 67.949 25.328 71.394 27.453 73.518 C 29.577 75.643 33.022 75.643 35.146 73.518 C 36.32 72.345 36.895 70.698 36.705 69.049 L 49.986 55.635 L 63.265 69.049 C 63.073 70.698 63.649 72.345 64.823 73.518 C 66.948 75.643 70.392 75.643 72.517 73.518 C 74.641 71.394 74.641 67.949 72.517 65.824 C 71.353 64.663 69.726 64.09 68.091 64.266 L 54.763 50.809 L 61.276 44.23 C 66.071 45.256 68.357 44.852 69.076 44.29 C 71.702 42.243 74.11 36.021 74.11 36.021 L 67.595 40.102 L 63.234 38.23 L 62.076 33.309 L 68.306 28.118 C 68.306 28.118 59.206 27.628 58.376 29.937 C 56.403 35.43 56.754 39.149 56.754 39.149 L 49.985 45.984 L 43.216 39.149 C 43.216 39.149 43.569 35.43 41.593 29.937 C 40.971 28.204 35.697 28.047 33.099 28.077 L 33.099 28.068 Z  M 31.23 67.496 C 31.837 67.496 32.445 67.728 32.909 68.191 C 33.837 69.118 33.837 70.622 32.909 71.549 C 31.981 72.476 30.478 72.476 29.551 71.549 C 28.624 70.622 28.624 69.118 29.551 68.191 C 30.016 67.726 30.622 67.496 31.23 67.496 Z  M 68.739 67.496 C 69.347 67.496 69.955 67.728 70.419 68.191 C 71.346 69.118 71.346 70.622 70.419 71.549 C 69.492 72.476 67.987 72.476 67.06 71.549 C 66.133 70.622 66.133 69.118 67.06 68.191 C 67.525 67.726 68.132 67.496 68.739 67.496 Z " fill="#000000"></path></svg>